<svg width="973" height="749" viewBox="0 0 973 749" fill="none" xmlns="http://www.w3.org/2000/svg">
<g clip-path="url(#clip0_304_4905)">
<g opacity="0.3">
<path fill-rule="evenodd" clip-rule="evenodd" d="M-309.824 181.543C-385.195 188.676 -481.582 185.522 -521.629 249.77C-563.106 316.311 -496.129 400.294 -495.048 478.696C-494.204 539.886 -542.018 601.945 -516.01 657.34C-490.016 712.704 -406.518 710.104 -365.22 755.219C-302.194 824.07 -309.003 980.387 -215.791 985.308C-124.761 990.113 -125.573 828.26 -54.1304 771.643C5.39251 724.472 129.413 763.673 154.388 691.949C180.459 617.076 65.1627 562.777 45.3261 486.016C29.0805 423.152 85.3044 350.951 51.8808 295.285C18.506 239.7 -57.5291 231.154 -119.378 211.705C-181.959 192.026 -244.514 175.363 -309.824 181.543Z" stroke="#0AB682"/>
<path opacity="0.95875" fill-rule="evenodd" clip-rule="evenodd" d="M-305.865 191.974C-380.941 201.732 -477.379 201.945 -515.16 267.551C-554.289 335.499 -484.422 417.093 -480.605 495.41C-477.627 556.533 -523.245 620.223 -495.32 674.676C-467.41 729.1 -384.053 723.587 -341.205 767.234C-275.816 833.843 -277.165 990.302 -183.838 991.967C-92.6961 993.593 -99.1559 831.866 -29.7327 772.791C28.1077 723.571 153.421 758.42 175.877 685.868C199.319 610.131 82.1984 559.888 59.695 483.867C41.2653 421.608 94.9352 347.489 59.5892 293.023C24.2949 238.637 -51.9921 232.75 -114.482 215.471C-177.712 197.988 -240.81 183.518 -305.865 191.974Z" stroke="#0AB682"/>
<path opacity="0.9175" fill-rule="evenodd" clip-rule="evenodd" d="M-301.545 202.261C-376.235 214.634 -472.606 218.211 -508.075 285.097C-544.809 354.369 -472.136 433.475 -465.589 511.61C-460.479 572.592 -503.847 637.836 -474.039 691.281C-444.246 744.697 -361.132 736.279 -316.788 778.404C-249.113 842.69 -245.001 999.101 -151.673 997.508C-60.53 995.952 -72.63 834.549 -5.31081 773.087C50.7767 721.879 177.23 752.333 197.14 679.042C217.925 602.532 99.122 556.408 73.9791 481.218C53.3879 419.64 104.438 343.693 67.2131 290.494C30.0422 237.373 -46.4038 234.152 -109.459 219.065C-173.26 203.799 -236.825 191.54 -301.545 202.261Z" stroke="#0AB682"/>
<path opacity="0.87625" fill-rule="evenodd" clip-rule="evenodd" d="M-296.869 212.391C-371.081 227.363 -467.269 234.302 -500.382 302.384C-534.676 372.896 -459.287 449.417 -450.017 527.277C-442.782 588.044 -483.846 654.761 -452.191 707.133C-420.552 759.477 -337.783 748.164 -291.995 788.715C-222.118 850.6 -212.55 1006.77 -119.334 1001.92C-28.301 997.187 -46.0265 836.305 19.1066 772.531C73.3728 719.397 200.812 745.419 218.152 671.477C236.254 594.289 115.914 552.339 88.1622 478.073C65.4344 417.251 113.803 339.569 74.7441 287.701C35.7419 235.909 -40.7699 235.358 -104.313 222.481C-168.608 209.451 -232.562 199.418 -296.869 212.391Z" stroke="#0AB682"/>
<path opacity="0.835" fill-rule="evenodd" clip-rule="evenodd" d="M-291.842 222.351C-365.486 239.904 -461.374 250.196 -492.09 319.392C-523.903 391.058 -445.889 464.902 -433.907 542.39C-424.556 602.868 -463.267 670.977 -429.803 722.213C-396.357 773.421 -314.033 759.226 -266.858 798.154C-194.863 857.563 -179.851 1013.31 -86.8612 1005.21C3.95138 997.297 -19.3781 837.131 43.4897 771.123C95.8685 716.127 224.138 737.686 238.887 663.184C254.284 585.411 132.553 547.687 102.227 474.434C77.3902 414.442 123.019 335.119 82.173 284.646C41.387 234.247 -35.0974 236.367 -99.0513 225.715C-163.762 214.937 -228.027 207.142 -291.842 222.351Z" stroke="#0AB682"/>
<path opacity="0.79375" fill-rule="evenodd" clip-rule="evenodd" d="M-286.47 232.13C-359.457 252.243 -454.927 265.874 -483.21 336.101C-512.502 408.833 -431.959 479.909 -417.28 556.932C-405.823 617.046 -442.134 686.466 -406.902 736.502C-371.689 786.512 -289.911 769.452 -241.406 806.711C-167.382 863.571 -146.943 1018.7 -54.2933 1007.36C36.188 996.281 7.28302 837.027 67.8089 768.864C118.236 712.074 247.18 729.144 259.32 654.173C271.994 575.91 149.02 542.457 116.156 470.307C89.2407 411.218 132.073 330.351 89.4908 281.335C46.9708 232.39 -29.3931 237.177 -93.6798 228.764C-158.727 220.25 -223.225 214.703 -286.47 232.13Z" stroke="#0AB682"/>
<path opacity="0.7525" fill-rule="evenodd" clip-rule="evenodd" d="M-280.761 241.716C-353.001 264.363 -447.937 281.318 -473.752 352.489C-500.488 426.199 -417.513 494.422 -400.155 570.885C-386.608 630.563 -420.474 701.207 -383.517 749.984C-346.58 798.734 -265.447 778.83 -215.671 814.373C-139.708 868.616 -113.868 1022.93 -21.6702 1008.37C68.3694 994.14 33.9242 835.992 92.0343 765.759C140.449 707.244 269.91 719.802 279.427 644.453C289.361 565.796 165.295 536.655 129.932 465.696C100.971 407.583 140.955 325.27 96.6885 277.769C52.4862 230.338 -23.664 237.788 -88.2052 231.623C-153.51 225.385 -218.163 222.092 -280.761 241.716Z" stroke="#0AB682"/>
<path opacity="0.71125" fill-rule="evenodd" clip-rule="evenodd" d="M-274.72 251.097C-346.126 276.251 -440.413 296.509 -463.728 368.537C-487.875 443.136 -402.57 508.421 -382.554 584.232C-366.932 643.401 -398.312 715.184 -359.675 762.641C-321.06 810.072 -240.671 787.349 -189.685 821.133C-111.875 872.692 -80.665 1026.01 10.9683 1008.24C100.457 990.878 60.5131 834.028 116.137 761.81C162.48 701.64 292.3 709.673 299.181 634.038C306.365 555.082 181.357 530.288 143.54 460.607C112.568 403.54 149.655 319.882 103.757 273.955C57.9268 228.095 -17.9171 238.198 -82.6342 234.29C-148.117 230.335 -212.845 229.3 -274.72 251.097Z" stroke="#0AB682"/>
<path opacity="0.67" fill-rule="evenodd" clip-rule="evenodd" d="M-268.356 260.261C-338.841 287.892 -432.363 311.428 -453.15 384.226C-474.679 459.622 -387.147 521.89 -364.498 596.957C-346.82 655.544 -375.676 728.378 -335.407 774.458C-295.159 820.513 -215.612 794.998 -163.478 826.983C-83.9167 875.794 -47.3748 1027.93 43.5823 1006.97C132.41 986.498 87.0172 831.138 140.086 757.022C184.302 695.272 314.323 698.769 318.56 622.94C322.984 543.781 197.187 523.365 156.961 455.046C124.017 399.095 158.161 314.194 110.689 269.897C63.2857 225.664 -12.1594 238.408 -76.9734 236.76C-142.554 235.093 -207.279 236.318 -268.356 260.261Z" stroke="#0AB682"/>
<path opacity="0.62875" fill-rule="evenodd" clip-rule="evenodd" d="M-261.675 269.197C-331.153 299.271 -423.797 326.057 -442.031 399.536C-460.915 475.637 -371.264 534.813 -346.008 609.043C-326.297 666.978 -352.593 740.775 -310.741 785.421C-268.91 830.043 -190.302 801.768 -137.084 831.913C-55.867 877.919 -14.0378 1028.69 76.1324 1004.56C164.192 981.005 113.404 827.324 163.855 751.401C205.888 688.146 335.952 687.103 337.54 611.172C339.199 531.907 212.766 515.894 170.18 449.021C135.303 394.253 166.464 308.212 117.475 265.599C68.5565 223.048 -6.39786 238.416 -71.2299 239.032C-136.829 239.654 -201.472 243.137 -261.675 269.197Z" stroke="#0AB682"/>
<path opacity="0.5875" fill-rule="evenodd" clip-rule="evenodd" d="M-254.687 277.895C-323.073 310.375 -414.726 340.378 -430.384 414.449C-446.601 491.163 -354.939 547.173 -327.108 620.477C-305.387 677.688 -329.092 752.358 -285.707 795.517C-242.345 838.652 -164.771 807.651 -110.533 835.92C-27.7602 879.063 19.3052 1028.28 108.579 1001.03C195.762 974.407 139.642 822.592 187.412 744.955C227.212 680.271 357.161 674.69 356.098 598.749C354.989 519.475 228.075 507.884 183.181 442.537C146.414 389.02 174.553 301.944 124.106 261.066C73.7329 220.248 -0.639536 238.224 -65.4106 241.101C-130.948 244.013 -195.43 249.75 -254.687 277.895Z" stroke="#0AB682"/>
<path opacity="0.54625" fill-rule="evenodd" clip-rule="evenodd" d="M-247.4 286.343C-314.611 321.191 -405.16 354.374 -418.224 428.946C-431.754 506.179 -338.193 558.956 -307.821 631.244C-284.117 687.663 -305.201 763.114 -260.336 804.733C-215.495 846.328 -139.05 812.638 -83.8587 838.998C0.369334 879.226 52.6138 1026.71 140.882 996.355C227.083 966.711 165.699 816.947 210.73 737.69C248.249 671.656 377.923 661.543 374.211 585.686C370.336 506.499 243.095 499.344 195.947 435.604C157.335 383.403 182.418 295.398 130.575 256.306C78.8083 217.27 5.10856 237.83 -59.5226 242.967C-124.918 248.164 -189.161 256.147 -247.4 286.343Z" stroke="#0AB682"/>
<path opacity="0.505" fill-rule="evenodd" clip-rule="evenodd" d="M-239.822 294.532C-305.776 331.704 -395.112 368.027 -405.565 443.01C-416.392 520.668 -321.046 570.148 -288.169 641.332C-262.511 696.889 -280.949 773.03 -234.658 813.057C-188.393 853.063 -113.171 816.725 -57.0932 841.143C28.4874 878.406 85.8472 1023.98 173.002 990.561C258.116 957.926 191.543 810.395 233.781 729.615C268.972 662.312 398.215 647.68 391.857 571.999C385.221 492.995 257.807 490.286 208.464 428.23C168.054 377.408 190.05 288.581 136.875 251.322C83.7767 214.117 10.8394 237.236 -53.5732 244.625C-118.748 252.101 -182.672 262.322 -239.822 294.532Z" stroke="#0AB682"/>
<path opacity="0.46375" fill-rule="evenodd" clip-rule="evenodd" d="M-231.963 302.452C-296.579 341.903 -384.594 381.322 -392.424 456.623C-400.533 534.612 -303.519 580.734 -268.178 650.728C-240.596 705.355 -256.365 782.094 -208.706 820.481C-161.073 858.847 -87.1648 819.907 -30.2692 842.352C56.5598 876.607 118.965 1020.09 204.9 983.649C288.824 948.064 217.142 802.946 256.535 720.741C289.356 652.251 418.009 633.118 409.015 557.705C399.625 478.98 272.195 480.719 220.716 420.423C178.556 371.042 197.44 281.502 142.996 246.121C88.6321 210.792 16.5461 236.443 -47.5694 246.075C-112.443 255.821 -175.972 268.267 -231.963 302.452Z" stroke="#0AB682"/>
<path opacity="0.4225" fill-rule="evenodd" clip-rule="evenodd" d="M-223.833 310.092C-287.033 351.774 -373.617 394.241 -378.815 469.77C-384.198 547.994 -285.633 590.703 -247.871 659.42C-218.399 713.051 -231.481 790.294 -182.511 826.994C-133.568 863.675 -61.0635 822.179 -3.41915 842.625C84.5524 873.828 151.927 1015.04 236.538 975.628C319.169 937.136 242.466 794.608 278.967 711.079C309.377 641.485 437.284 617.873 425.663 542.82C413.532 464.471 286.239 470.656 232.688 412.193C188.831 364.314 204.577 274.169 148.932 240.71C93.3685 207.3 22.2216 235.451 -41.5187 247.315C-106.013 259.319 -169.069 273.974 -223.833 310.092Z" stroke="#0AB682"/>
<path opacity="0.38125" fill-rule="evenodd" clip-rule="evenodd" d="M-215.44 317.445C-277.147 361.307 -362.197 406.769 -364.755 482.433C-367.405 560.798 -267.409 600.041 -227.272 667.398C-195.947 719.968 -206.325 797.62 -156.104 832.589C-105.911 867.539 -34.8988 823.538 23.4239 841.96C112.431 870.074 184.693 1008.85 267.877 966.508C349.114 925.156 267.484 785.392 301.047 700.639C329.01 630.027 456.015 601.965 441.782 527.363C426.924 449.486 299.925 460.109 244.365 403.551C198.864 357.231 211.455 266.592 154.676 235.095C97.9801 203.645 27.859 234.261 -35.4284 248.343C-99.4644 262.59 -161.97 279.437 -215.44 317.445Z" stroke="#0AB682"/>
<path opacity="0.34" fill-rule="evenodd" clip-rule="evenodd" d="M-206.797 324.499C-266.935 370.488 -350.347 418.891 -350.263 494.599C-350.176 573.008 -248.872 608.737 -206.408 674.653C-173.267 726.098 -180.929 804.064 -129.519 837.259C-78.1358 870.437 -8.70272 823.984 50.2274 840.359C140.161 865.35 217.223 1001.52 298.878 956.3C378.622 912.137 292.165 775.308 322.749 689.435C348.231 617.89 474.179 585.413 457.351 511.353C439.784 434.042 313.233 449.091 255.734 394.506C208.644 349.803 218.064 258.779 160.22 229.283C102.461 199.83 33.4514 232.876 -29.306 249.157C-92.8058 265.631 -154.686 284.649 -206.797 324.499Z" stroke="#0AB682"/>
<path opacity="0.29875" fill-rule="evenodd" clip-rule="evenodd" d="M-197.912 331.248C-256.409 379.308 -338.08 430.592 -335.354 506.251C-332.531 584.609 -230.042 616.781 -185.304 681.175C-150.387 731.432 -155.323 809.618 -102.786 840.999C-50.2766 872.363 17.493 823.515 76.9588 837.824C167.71 859.66 249.477 993.06 329.504 945.016C407.659 898.097 316.478 764.368 344.047 677.481C367.017 605.09 491.755 568.237 472.352 494.81C452.098 418.158 326.149 437.615 266.78 385.07C218.158 342.038 224.396 250.741 165.558 223.281C106.807 195.862 38.9921 231.296 -23.1589 249.757C-86.045 268.437 -147.224 289.603 -197.912 331.248Z" stroke="#0AB682"/>
<path opacity="0.2575" fill-rule="evenodd" clip-rule="evenodd" d="M-188.797 337.683C-245.581 387.755 -325.413 441.858 -320.048 517.375C-314.492 595.588 -210.942 624.163 -163.984 686.956C-127.335 735.964 -129.54 814.275 -75.939 843.803C-22.3672 873.315 43.6564 822.132 103.585 834.357C195.043 853.013 281.416 983.478 359.718 932.67C436.187 883.053 340.395 752.587 364.915 664.79C385.344 591.642 508.72 550.458 486.767 477.753C463.85 401.855 338.657 425.695 277.49 375.255C227.396 333.945 230.444 242.486 170.684 217.097C111.011 191.745 44.4743 229.524 -16.9945 250.143C-79.1905 271.006 -139.593 294.294 -188.797 337.683Z" stroke="#0AB682"/>
<path opacity="0.21625" fill-rule="evenodd" clip-rule="evenodd" d="M-179.464 343.795C-234.465 395.819 -312.361 452.675 -304.363 527.959C-296.081 605.93 -191.597 630.874 -142.476 691.99C-104.139 739.689 -103.609 818.029 -49.0107 845.669C5.55854 873.293 69.7557 819.837 130.075 829.963C222.128 845.416 313.001 972.787 389.482 919.278C464.173 867.021 363.887 739.978 385.328 651.379C403.191 577.562 525.055 532.098 500.578 460.203C475.026 385.151 350.741 413.347 287.851 365.071C236.346 325.535 236.2 234.025 175.59 210.737C115.069 187.483 49.8912 227.561 -10.8205 250.313C-72.2504 273.334 -131.803 298.716 -179.464 343.795Z" stroke="#0AB682"/>
<path opacity="0.175" fill-rule="evenodd" clip-rule="evenodd" d="M-169.922 349.579C-223.075 403.49 -298.938 463.03 -288.319 537.989C-277.32 615.623 -172.029 636.906 -120.806 696.27C-80.827 742.602 -77.5634 820.876 -22.0335 846.593C33.4666 872.297 95.759 816.633 156.395 824.647C248.931 836.878 344.194 961 418.761 904.854C491.583 850.023 386.924 726.558 405.26 637.264C420.536 562.869 540.739 513.179 513.767 442.182C485.612 368.068 362.387 400.583 297.85 354.532C244.997 316.818 241.657 225.369 180.272 204.21C118.976 183.082 55.2364 225.411 -4.64428 250.268C-65.2333 275.419 -123.864 302.864 -169.922 349.579Z" stroke="#0AB682"/>
<path opacity="0.13375" fill-rule="evenodd" clip-rule="evenodd" d="M-160.185 355.025C-211.424 410.758 -285.163 472.91 -271.934 547.453C-258.232 624.656 -152.263 642.251 -98.9987 699.791C-57.4275 744.7 -51.4342 822.812 4.95941 846.576C61.3227 870.327 121.635 812.523 182.513 818.416C275.42 827.41 374.957 948.132 447.519 889.418C518.383 832.079 409.478 712.341 424.687 622.462C437.357 547.579 555.753 493.725 526.32 423.712C495.595 350.626 373.58 387.422 307.476 343.651C253.338 307.804 246.809 216.527 184.723 197.524C122.727 178.548 60.5033 223.075 1.52657 250.007C-58.1478 277.257 -115.785 306.731 -160.185 355.025Z" stroke="#0AB682"/>
<path opacity="0.0925" fill-rule="evenodd" clip-rule="evenodd" d="M-150.263 360.129C-199.526 417.616 -271.051 482.304 -255.228 556.339C-238.841 633.017 -132.322 646.903 -77.0822 702.549C-33.9691 745.98 -25.2533 823.836 31.9353 845.617C89.0931 867.386 147.351 807.512 208.398 811.278C301.562 817.024 405.251 934.198 475.72 872.987C544.54 813.21 431.523 697.346 443.585 606.991C453.635 531.711 570.079 473.758 538.221 404.815C504.964 332.845 384.307 373.877 316.715 332.44C261.36 298.504 251.649 207.511 188.937 190.686C126.317 173.886 65.6855 220.557 7.68455 249.53C-51.0025 278.847 -107.576 310.315 -150.263 360.129Z" stroke="#0AB682"/>
<path opacity="0.05125" fill-rule="evenodd" clip-rule="evenodd" d="M-140.169 364.883C-187.396 424.054 -256.62 491.199 -238.223 564.637C-219.17 640.696 -112.231 650.856 -55.0828 704.541C-10.4803 746.44 0.947373 823.944 58.8612 843.716C116.744 863.477 172.877 801.607 234.018 803.24C327.326 805.731 435.041 919.215 503.331 855.583C570.023 793.44 453.031 681.59 461.933 590.87C469.349 515.285 583.7 453.303 549.454 385.514C513.706 314.749 394.555 359.967 325.558 320.914C269.052 288.93 256.172 198.332 192.911 183.705C129.742 169.101 70.7766 217.859 13.8222 248.839C-43.806 280.186 -99.2469 313.609 -140.169 364.883Z" stroke="#0AB682"/>
<path opacity="0.01" fill-rule="evenodd" clip-rule="evenodd" d="M-129.917 369.282C-175.049 430.066 -241.888 499.585 -220.94 572.337C-199.243 647.685 -92.0155 654.106 -33.0283 705.764C13.0093 746.081 27.1348 823.139 85.7034 840.878C144.241 858.607 198.18 794.816 259.341 794.313C352.679 793.546 464.289 903.202 530.317 837.225C594.799 772.793 473.975 665.095 479.705 574.118C484.479 498.321 596.597 432.386 560.007 365.834C521.81 296.359 404.31 345.708 333.993 309.086C276.405 279.095 260.37 189 196.637 176.591C132.998 164.2 75.7695 214.987 19.931 247.936C-36.5681 281.274 -90.8088 316.612 -129.917 369.282Z" stroke="#0AB682"/>
</g>
</g>
<defs>
<clipPath id="clip0_304_4905">
<rect width="973" height="749" fill="white"/>
</clipPath>
</defs>
</svg>
