<svg width="973" height="749" viewBox="0 0 973 749" fill="none" xmlns="http://www.w3.org/2000/svg">
<g clip-path="url(#clip0_320_4875)">
<g opacity="0.3">
<path opacity="0.1" fill-rule="evenodd" clip-rule="evenodd" d="M867.176 116.543C791.805 123.676 695.418 120.522 655.371 184.77C613.894 251.311 680.871 335.294 681.952 413.696C682.796 474.886 634.982 536.945 660.99 592.34C686.984 647.704 770.482 645.104 811.78 690.219C874.806 759.07 867.997 915.387 961.209 920.308C1052.24 925.114 1051.43 763.26 1122.87 706.643C1182.39 659.472 1306.41 698.673 1331.39 626.949C1357.46 552.076 1242.16 497.777 1222.33 421.016C1206.08 358.152 1262.3 285.951 1228.88 230.285C1195.51 174.7 1119.47 166.154 1057.62 146.705C995.041 127.026 932.486 110.363 867.176 116.543Z" stroke="#0AB682"/>
<path opacity="0.13" fill-rule="evenodd" clip-rule="evenodd" d="M871.135 126.974C796.059 136.732 699.621 136.945 661.84 202.551C622.711 270.499 692.578 352.093 696.395 430.41C699.373 491.533 653.755 555.223 681.68 609.676C709.59 664.1 792.947 658.587 835.794 702.234C901.184 768.843 899.835 925.302 993.162 926.967C1084.3 928.593 1077.84 766.866 1147.27 707.791C1205.11 658.571 1330.42 693.42 1352.88 620.868C1376.32 545.131 1259.2 494.889 1236.69 418.867C1218.27 356.608 1271.94 282.489 1236.59 228.023C1201.29 173.637 1125.01 167.75 1062.52 150.471C999.288 132.988 936.19 118.518 871.135 126.974Z" stroke="#0AB682"/>
<path opacity="0.16" fill-rule="evenodd" clip-rule="evenodd" d="M875.455 137.261C800.765 149.634 704.394 153.211 668.925 220.097C632.191 289.369 704.864 368.475 711.411 446.61C716.521 507.592 673.153 572.836 702.961 626.281C732.754 679.698 815.868 671.279 860.212 713.404C927.887 777.69 931.999 934.101 1025.33 932.508C1116.47 930.952 1104.37 769.549 1171.69 708.087C1227.78 656.879 1354.23 687.333 1374.14 614.042C1394.92 537.532 1276.12 491.408 1250.98 416.218C1230.39 354.64 1281.44 278.693 1244.21 225.494C1207.04 172.373 1130.6 169.152 1067.54 154.065C1003.74 138.799 940.175 126.54 875.455 137.261Z" stroke="#0AB682"/>
<path opacity="0.2" fill-rule="evenodd" clip-rule="evenodd" d="M880.131 147.391C805.919 162.363 709.731 169.302 676.618 237.384C642.324 307.896 717.713 384.417 726.983 462.277C734.218 523.044 693.154 589.761 724.809 642.133C756.448 694.477 839.217 683.164 885.005 723.715C954.882 785.601 964.45 941.773 1057.67 936.923C1148.7 932.188 1130.97 771.305 1196.11 707.531C1250.37 654.397 1377.81 680.419 1395.15 606.477C1413.25 529.289 1292.91 487.339 1265.16 413.073C1242.43 352.251 1290.8 274.569 1251.74 222.701C1212.74 170.909 1136.23 170.358 1072.69 157.481C1008.39 144.451 944.438 134.418 880.131 147.391Z" stroke="#0AB682"/>
<path opacity="0.24" fill-rule="evenodd" clip-rule="evenodd" d="M885.158 157.351C811.514 174.904 715.626 185.196 684.91 254.392C653.097 326.058 731.111 399.902 743.093 477.39C752.444 537.868 713.733 605.977 747.197 657.213C780.643 708.421 862.967 694.226 910.142 733.154C982.136 792.564 997.149 948.306 1090.14 940.207C1180.95 932.297 1157.62 772.131 1220.49 706.123C1272.87 651.127 1401.14 672.686 1415.89 598.184C1431.28 520.412 1309.55 482.687 1279.23 409.434C1254.39 349.442 1300.02 270.119 1259.17 219.647C1218.39 169.247 1141.9 171.367 1077.95 160.715C1013.24 149.937 948.973 142.142 885.158 157.351Z" stroke="#0AB682"/>
<path opacity="0.3" fill-rule="evenodd" clip-rule="evenodd" d="M890.53 167.131C817.543 187.243 722.073 200.874 693.79 271.101C664.498 343.833 745.041 414.909 759.72 491.932C771.177 552.046 734.866 621.466 770.098 671.502C805.31 721.512 887.089 704.452 935.594 741.711C1009.62 798.571 1030.06 953.695 1122.71 942.355C1213.19 931.281 1184.28 772.027 1244.81 703.865C1295.24 647.075 1424.18 664.144 1436.32 589.173C1448.99 510.91 1326.02 477.457 1293.16 405.307C1266.24 346.218 1309.07 265.351 1266.49 216.335C1223.97 167.39 1147.61 172.177 1083.32 163.764C1018.27 155.25 953.775 149.703 890.53 167.131Z" stroke="#0AB682"/>
<path opacity="0.4" fill-rule="evenodd" clip-rule="evenodd" d="M896.239 176.716C823.998 199.363 729.063 216.318 703.248 287.489C676.512 361.199 759.487 429.422 776.845 505.885C790.392 565.563 756.526 636.207 793.483 684.984C830.42 733.734 911.553 713.83 961.329 749.373C1037.29 803.616 1063.13 957.932 1155.33 943.366C1245.37 929.141 1210.92 770.992 1269.03 700.759C1317.45 642.244 1446.91 654.802 1456.43 579.453C1466.36 500.796 1342.29 471.655 1306.93 400.696C1277.97 342.583 1317.96 260.27 1273.69 212.77C1229.49 165.338 1153.34 172.788 1088.79 166.623C1023.49 160.385 958.837 157.092 896.239 176.716Z" stroke="#0AB682"/>
<path opacity="0.5" fill-rule="evenodd" clip-rule="evenodd" d="M902.28 186.097C830.874 211.251 736.587 231.509 713.272 303.537C689.125 378.136 774.43 443.421 794.446 519.232C810.068 578.401 778.688 650.184 817.324 697.641C855.94 745.072 936.329 722.349 987.315 756.134C1065.12 807.692 1096.33 961.012 1187.97 943.237C1277.46 925.878 1237.51 769.028 1293.14 696.81C1339.48 636.641 1469.3 644.674 1476.18 569.038C1483.36 490.082 1358.36 465.289 1320.54 395.607C1289.57 338.54 1326.66 254.882 1280.76 208.955C1234.93 163.095 1159.08 173.198 1094.37 169.29C1028.88 165.335 964.155 164.3 902.28 186.097Z" stroke="#0AB682"/>
<path opacity="0.67" fill-rule="evenodd" clip-rule="evenodd" d="M908.644 195.261C838.159 222.892 744.637 246.428 723.85 319.226C702.321 394.622 789.853 456.89 812.502 531.957C830.18 590.544 801.324 663.378 841.593 709.458C881.84 755.513 961.388 729.998 1013.52 761.983C1093.08 810.794 1129.63 962.932 1220.58 941.97C1309.41 921.498 1264.02 766.138 1317.09 692.022C1361.3 630.272 1491.32 633.77 1495.56 557.94C1499.98 478.781 1374.19 458.366 1333.96 390.046C1301.02 334.095 1335.16 249.194 1287.69 204.897C1240.29 160.664 1164.84 173.408 1100.03 171.76C1034.45 170.093 969.721 171.318 908.644 195.261Z" stroke="#0AB682"/>
<path opacity="0.62875" fill-rule="evenodd" clip-rule="evenodd" d="M915.325 204.197C845.847 234.271 753.203 261.057 734.969 334.536C716.085 410.637 805.736 469.813 830.992 544.043C850.703 601.978 824.407 675.775 866.259 720.421C908.09 765.043 986.698 736.768 1039.92 766.914C1121.13 812.919 1162.96 963.689 1253.13 939.565C1341.19 916.006 1290.4 762.324 1340.85 686.401C1382.89 623.146 1512.95 622.104 1514.54 546.172C1516.2 466.908 1389.77 450.894 1347.18 384.021C1312.3 329.253 1343.46 243.212 1294.47 200.599C1245.56 158.048 1170.6 173.416 1105.77 174.032C1040.17 174.654 975.528 178.137 915.325 204.197Z" stroke="#0AB682"/>
<path opacity="0.5875" fill-rule="evenodd" clip-rule="evenodd" d="M922.313 212.895C853.927 245.375 762.274 275.378 746.616 349.449C730.399 426.163 822.061 482.173 849.892 555.477C871.613 612.688 847.908 687.358 891.293 730.517C934.655 773.652 1012.23 742.651 1066.47 770.92C1149.24 814.063 1196.31 963.281 1285.58 936.025C1372.76 909.407 1316.64 757.592 1364.41 679.955C1404.21 615.271 1534.16 609.69 1533.1 533.75C1531.99 454.475 1405.07 442.884 1360.18 377.537C1323.41 324.02 1351.55 236.944 1301.11 196.066C1250.73 155.248 1176.36 173.224 1111.59 176.101C1046.05 179.013 981.57 184.75 922.313 212.895Z" stroke="#0AB682"/>
<path opacity="0.54625" fill-rule="evenodd" clip-rule="evenodd" d="M929.6 221.343C862.389 256.191 771.84 289.374 758.776 363.946C745.246 441.179 838.807 493.956 869.179 566.244C892.883 622.663 871.799 698.115 916.664 739.733C961.505 781.328 1037.95 747.639 1093.14 773.998C1177.37 814.226 1229.61 961.71 1317.88 931.355C1404.08 901.711 1342.7 751.947 1387.73 672.69C1425.25 606.656 1554.92 596.543 1551.21 520.687C1547.34 441.499 1420.09 434.344 1372.95 370.604C1334.34 318.403 1359.42 230.398 1307.58 191.306C1255.81 152.27 1182.11 172.83 1117.48 177.967C1052.08 183.164 987.839 191.147 929.6 221.343Z" stroke="#0AB682"/>
<path opacity="0.505" fill-rule="evenodd" clip-rule="evenodd" d="M937.178 229.532C871.224 266.704 781.888 303.027 771.435 378.01C760.608 455.668 855.954 505.148 888.83 576.332C914.489 631.889 896.051 708.03 942.341 748.057C988.607 788.063 1063.83 751.726 1119.91 776.143C1205.49 813.407 1262.85 958.978 1350 925.561C1435.12 892.926 1368.54 745.395 1410.78 664.615C1445.97 597.313 1575.21 582.68 1568.86 506.999C1562.22 427.995 1434.81 425.286 1385.46 363.23C1345.05 312.408 1367.05 223.581 1313.87 186.322C1260.78 149.117 1187.84 172.236 1123.43 179.625C1058.25 187.101 994.328 197.322 937.178 229.532Z" stroke="#0AB682"/>
<path opacity="0.46375" fill-rule="evenodd" clip-rule="evenodd" d="M945.037 237.452C880.42 276.903 792.406 316.322 784.576 391.623C776.467 469.612 873.481 515.734 908.822 585.728C936.404 640.355 920.635 717.094 968.294 755.481C1015.93 793.847 1089.84 754.907 1146.73 777.352C1233.56 811.607 1295.97 955.088 1381.9 918.649C1465.82 883.064 1394.14 737.946 1433.54 655.741C1466.36 587.251 1595.01 568.118 1586.01 492.705C1576.63 413.98 1449.19 415.719 1397.72 355.423C1355.56 306.042 1374.44 216.502 1320 181.121C1265.63 145.792 1193.55 171.443 1129.43 181.075C1064.56 190.821 1001.03 203.267 945.037 237.452Z" stroke="#0AB682"/>
<path opacity="0.4225" fill-rule="evenodd" clip-rule="evenodd" d="M953.167 245.092C889.967 286.774 803.382 329.241 798.185 404.77C792.802 482.994 891.367 525.703 929.129 594.42C958.601 648.051 945.519 725.294 994.489 761.994C1043.43 798.675 1115.94 757.179 1173.58 777.625C1261.55 808.828 1328.93 950.044 1413.54 910.629C1496.17 872.136 1419.47 729.609 1455.97 646.079C1486.38 576.485 1614.28 552.873 1602.66 477.82C1590.53 399.471 1463.24 405.656 1409.69 347.193C1365.83 299.314 1381.58 209.169 1325.93 175.71C1270.37 142.3 1199.22 170.451 1135.48 182.315C1070.99 194.319 1007.93 208.974 953.167 245.092Z" stroke="#0AB682"/>
<path opacity="0.38125" fill-rule="evenodd" clip-rule="evenodd" d="M961.56 252.445C899.853 296.307 814.803 341.769 812.244 417.433C809.595 495.798 909.59 535.041 949.727 602.398C981.053 654.968 970.675 732.62 1020.9 767.589C1071.09 802.54 1142.1 758.539 1200.42 776.96C1289.43 805.074 1361.69 943.853 1444.88 901.509C1526.11 860.156 1444.48 720.392 1478.05 635.639C1506.01 565.027 1633.02 536.965 1618.78 462.363C1603.92 384.486 1476.92 395.109 1421.37 338.551C1375.86 292.231 1388.45 201.592 1331.68 170.095C1274.98 138.645 1204.86 169.261 1141.57 183.343C1077.54 197.59 1015.03 214.437 961.56 252.445Z" stroke="#0AB682"/>
<path opacity="0.34" fill-rule="evenodd" clip-rule="evenodd" d="M970.203 259.499C910.065 305.488 826.653 353.891 826.737 429.599C826.824 508.008 928.128 543.737 970.592 609.653C1003.73 661.098 996.071 739.064 1047.48 772.259C1098.86 805.437 1168.3 758.984 1227.23 775.359C1317.16 800.35 1394.22 936.522 1475.88 891.3C1555.62 847.138 1469.16 710.308 1499.75 624.435C1525.23 552.89 1651.18 520.413 1634.35 446.353C1616.78 369.042 1490.23 384.091 1432.73 329.506C1385.64 284.803 1395.06 193.779 1337.22 164.283C1279.46 134.83 1210.45 167.876 1147.69 184.157C1084.19 200.631 1022.31 219.649 970.203 259.499Z" stroke="#0AB682"/>
<path opacity="0.29875" fill-rule="evenodd" clip-rule="evenodd" d="M979.088 266.248C920.591 314.308 838.919 365.592 841.646 441.251C844.469 519.609 946.958 551.781 991.696 616.175C1026.61 666.432 1021.68 744.618 1074.21 775.999C1126.72 807.363 1194.49 758.515 1253.96 772.824C1344.71 794.661 1426.48 928.06 1506.5 880.017C1584.66 833.098 1493.48 699.369 1521.05 612.481C1544.02 540.09 1668.76 503.237 1649.35 429.81C1629.1 353.159 1503.15 372.615 1443.78 320.07C1395.16 277.038 1401.4 185.741 1342.56 158.281C1283.81 130.862 1215.99 166.296 1153.84 184.757C1090.95 203.437 1029.78 224.604 979.088 266.248Z" stroke="#0AB682"/>
<path opacity="0.2575" fill-rule="evenodd" clip-rule="evenodd" d="M988.203 272.683C931.419 322.755 851.587 376.858 856.952 452.376C862.508 530.588 966.058 559.163 1013.02 621.956C1049.66 670.964 1047.46 749.275 1101.06 778.803C1154.63 808.315 1220.66 757.133 1280.59 769.357C1372.04 788.013 1458.42 918.478 1536.72 867.671C1613.19 818.053 1517.4 687.587 1541.92 599.79C1562.34 526.642 1685.72 485.458 1663.77 412.753C1640.85 336.855 1515.66 360.696 1454.49 310.255C1404.4 268.945 1407.44 177.486 1347.68 152.097C1288.01 126.745 1221.47 164.524 1160.01 185.143C1097.81 206.006 1037.41 229.294 988.203 272.683Z" stroke="#0AB682"/>
<path opacity="0.21625" fill-rule="evenodd" clip-rule="evenodd" d="M997.536 278.795C942.535 330.819 864.639 387.675 872.637 462.959C880.919 540.93 985.403 565.874 1034.52 626.99C1072.86 674.689 1073.39 753.029 1127.99 780.669C1182.56 808.293 1246.76 754.838 1307.07 764.963C1399.13 780.416 1490 907.787 1566.48 854.278C1641.17 802.021 1540.89 674.979 1562.33 586.38C1580.19 512.563 1702.06 467.098 1677.58 395.203C1652.03 320.152 1527.74 348.347 1464.85 300.071C1413.35 260.535 1413.2 169.025 1352.59 145.737C1292.07 122.483 1226.89 162.561 1166.18 185.313C1104.75 208.334 1045.2 233.716 997.536 278.795Z" stroke="#0AB682"/>
<path opacity="0.175" fill-rule="evenodd" clip-rule="evenodd" d="M1007.08 284.579C953.925 338.49 878.062 398.03 888.681 472.989C899.68 550.623 1004.97 571.906 1056.19 631.27C1096.17 677.602 1099.44 755.876 1154.97 781.593C1210.47 807.297 1272.76 751.633 1333.39 759.648C1425.93 771.878 1521.19 896 1595.76 839.855C1668.58 785.023 1563.92 661.558 1582.26 572.264C1597.54 497.869 1717.74 448.18 1690.77 377.182C1662.61 303.068 1539.39 335.584 1474.85 289.532C1422 251.818 1418.66 160.369 1357.27 139.21C1295.98 118.082 1232.24 160.411 1172.36 185.268C1111.77 210.419 1053.14 237.864 1007.08 284.579Z" stroke="#0AB682"/>
<path opacity="0.13375" fill-rule="evenodd" clip-rule="evenodd" d="M1016.82 290.025C965.576 345.758 891.837 407.91 905.066 482.453C918.768 559.656 1024.74 577.251 1078 634.791C1119.57 679.7 1125.57 757.813 1181.96 781.576C1238.32 805.327 1298.63 747.523 1359.51 753.416C1452.42 762.41 1551.96 883.132 1624.52 824.418C1695.38 767.079 1586.48 647.341 1601.69 557.462C1614.36 482.579 1732.75 428.725 1703.32 358.712C1672.6 285.626 1550.58 322.422 1484.48 278.651C1430.34 242.804 1423.81 151.527 1361.72 132.524C1299.73 113.548 1237.5 158.075 1178.53 185.007C1118.85 212.257 1061.21 241.731 1016.82 290.025Z" stroke="#0AB682"/>
<path opacity="0.0925" fill-rule="evenodd" clip-rule="evenodd" d="M1026.74 295.129C977.474 352.616 905.949 417.304 921.772 491.339C938.159 568.017 1044.68 581.903 1099.92 637.549C1143.03 680.98 1151.75 758.836 1208.94 780.617C1266.09 802.386 1324.35 742.512 1385.4 746.278C1478.56 752.024 1582.25 869.198 1652.72 807.988C1721.54 748.21 1608.52 632.346 1620.59 541.991C1630.64 466.711 1747.08 408.758 1715.22 339.815C1681.96 267.846 1561.31 308.877 1493.72 267.44C1438.36 233.504 1428.65 142.511 1365.94 125.686C1303.32 108.886 1242.69 155.557 1184.68 184.53C1126 213.847 1069.42 245.315 1026.74 295.129Z" stroke="#0AB682"/>
<path opacity="0.05125" fill-rule="evenodd" clip-rule="evenodd" d="M1036.83 299.883C989.604 359.054 920.38 426.199 938.777 499.637C957.83 575.696 1064.77 585.856 1121.92 639.541C1166.52 681.44 1177.95 758.945 1235.86 778.716C1293.74 798.477 1349.88 736.607 1411.02 738.24C1504.33 740.731 1612.04 854.215 1680.33 790.583C1747.02 728.44 1630.03 616.59 1638.93 525.87C1646.35 450.285 1760.7 388.303 1726.45 320.514C1690.71 249.749 1571.55 294.967 1502.56 255.914C1446.05 223.93 1433.17 133.332 1369.91 118.705C1306.74 104.101 1247.78 152.859 1190.82 183.84C1133.19 215.186 1077.75 248.609 1036.83 299.883Z" stroke="#0AB682"/>
<path opacity="0.01" fill-rule="evenodd" clip-rule="evenodd" d="M1047.08 304.282C1001.95 365.066 935.112 434.585 956.06 507.337C977.756 582.685 1084.98 589.106 1143.97 640.764C1190.01 681.081 1204.13 758.14 1262.7 775.878C1321.24 793.607 1375.18 729.816 1436.34 729.313C1529.68 728.547 1641.29 838.203 1707.32 772.226C1771.8 707.793 1650.98 600.095 1656.71 509.119C1661.48 433.321 1773.6 367.386 1737.01 300.834C1698.81 231.359 1581.31 280.708 1510.99 244.087C1453.4 214.095 1437.37 124.001 1373.64 111.591C1310 99.1998 1252.77 149.987 1196.93 182.936C1140.43 216.274 1086.19 251.612 1047.08 304.282Z" stroke="#0AB682"/>
</g>
</g>
<defs>
<clipPath id="clip0_320_4875">
<rect width="973" height="749" fill="white"/>
</clipPath>
</defs>
</svg>
