<svg width="367" height="120" viewBox="0 0 367 120" fill="none" xmlns="http://www.w3.org/2000/svg">
<path d="M150.425 17.9774V51.124H139.605V0.300022H150.73L174.274 32.2267V0.300022H185.094V51.124H174.656L150.425 17.9774Z" fill="white"/>
<path d="M211.613 13.4056C222.585 13.4056 230.053 21.6349 230.053 33.6736V35.8069H202.698C203.308 40.4549 207.041 44.3416 213.289 44.3416C216.718 44.3416 220.757 42.9696 223.118 40.6843L227.386 46.9323C223.728 50.2843 217.937 52.0376 212.222 52.0376C201.021 52.0376 192.564 44.4936 192.564 32.6829C192.564 22.0149 200.412 13.4056 211.613 13.4056ZM202.545 29.2549H220.681C220.452 25.7496 218.013 21.1016 211.613 21.1016C205.593 21.1016 203.002 25.5976 202.545 29.2549Z" fill="white"/>
<path d="M252.1 38.703L243.643 51.123H232.899L245.928 32.227L233.66 14.3204H244.48L252.1 25.6724L259.644 14.3204H270.464L258.12 32.227L271.302 51.123H260.482L252.1 38.703Z" fill="white"/>
<path d="M300.944 46.4754C298.43 49.2954 294.011 52.0381 287.991 52.0381C279.914 52.0381 276.104 47.6181 276.104 40.4554V14.3208H285.782V36.6461C285.782 41.7514 288.448 43.4274 292.563 43.4274C296.296 43.4274 299.268 41.3701 300.944 39.2368V14.3208H310.622V51.1234H300.944V46.4754Z" fill="white"/>
<path d="M321.214 39.5416C323.881 42.0563 329.367 44.5696 333.939 44.5696C338.13 44.5696 340.112 42.8936 340.112 40.6083C340.112 38.0936 336.758 37.4083 332.719 36.6456C326.395 35.4269 318.242 33.8269 318.242 24.9883C318.242 18.8163 323.653 13.4056 333.33 13.4056C339.578 13.4056 344.53 15.5389 348.188 18.4349L344.302 25.0643C342.093 22.7016 337.901 20.7963 333.406 20.7963C329.901 20.7963 327.614 22.3976 327.614 24.4536C327.614 26.5883 330.51 27.1976 334.625 28.0363C340.949 29.2549 349.408 31.0069 349.408 40.2269C349.408 46.9323 343.693 52.0376 333.482 52.0376C327.081 52.0376 320.909 49.9043 317.023 46.3229L321.214 39.5416Z" fill="white"/>
<path d="M181.328 82.3114L167.804 118.434H163.344L149.82 82.3114V118.434H139.604V68.7567H153.92L165.574 98.0141L177.228 68.7567H191.615V118.434H181.328V82.3114Z" fill="white"/>
<path d="M225.558 113.785C223.043 116.605 218.624 119.348 212.604 119.348C204.527 119.348 200.718 114.928 200.718 107.765V81.6308H210.395V103.956C210.395 109.061 213.062 110.737 217.176 110.737C220.91 110.737 223.882 108.68 225.558 106.547V81.6308H235.235V118.433H225.558V113.785Z" fill="white"/>
<path d="M247.377 109.29V90.0877H241.281V81.6303H247.377V71.573H257.13V81.6303H264.597V90.0877H257.13V106.7C257.13 108.985 258.349 110.738 260.482 110.738C261.93 110.738 263.302 110.205 263.836 109.672L265.893 116.986C264.445 118.281 261.854 119.348 257.816 119.348C251.034 119.348 247.377 115.844 247.377 109.29Z" fill="white"/>
<path d="M296.068 113.785C293.553 116.605 289.133 119.348 283.115 119.348C275.037 119.348 271.228 114.928 271.228 107.765V81.6308H280.904V103.956C280.904 109.061 283.572 110.737 287.687 110.737C291.42 110.737 294.392 108.68 296.068 106.547V81.6308H305.745V118.433H296.068V113.785Z" fill="white"/>
<path d="M337.445 114.624C334.93 117.596 330.587 119.348 325.786 119.348C319.919 119.348 312.985 115.386 312.985 107.156C312.985 98.5463 319.919 95.421 325.786 95.421C330.663 95.421 335.006 96.9463 337.445 99.917V94.8117C337.445 91.0783 334.245 88.641 329.367 88.641C325.406 88.641 321.749 90.0877 318.625 92.9837L314.966 86.5063C319.462 82.545 325.253 80.7157 331.045 80.7157C339.426 80.7157 347.122 84.069 347.122 94.6597V118.433H337.445V114.624ZM337.445 105.022C335.845 102.889 332.797 101.822 329.673 101.822C325.863 101.822 322.738 103.804 322.738 107.385C322.738 110.813 325.863 112.794 329.673 112.794C332.797 112.794 335.845 111.728 337.445 109.594V105.022Z" fill="white"/>
<path d="M356.724 67.6106H366.401V118.435H356.724V67.6106Z" fill="white"/>
<path d="M114.405 83.9964C119.114 79.5084 119.248 72.0444 114.704 67.3551C110.142 62.6471 102.751 62.5164 98.0648 67.0618C93.4702 71.5164 93.3168 78.9991 97.7262 83.6164C102.205 88.3044 109.705 88.4764 114.405 83.9964Z" fill="#0AB682"/>
<path d="M34.1466 114.383C38.6346 119.092 46.0986 119.225 50.788 114.681C55.496 110.12 55.6266 102.729 51.0813 98.0427C46.6266 93.448 39.144 93.2947 34.5266 97.704C29.8386 102.183 29.6666 109.683 34.1466 114.383Z" fill="#0AB682"/>
<path d="M3.90485 33.5307C-0.804479 38.0187 -0.937812 45.4827 3.60619 50.172C8.16752 54.88 15.5582 55.0107 20.2449 50.4654C24.8395 46.0107 24.9929 38.528 20.5835 33.9107C16.1049 29.2227 8.60485 29.0507 3.90485 33.5307Z" fill="#0AB682"/>
<path d="M84.646 3.62141C80.158 -1.08792 72.694 -1.22126 68.0047 3.32274C63.2967 7.88408 63.1674 15.2747 67.7114 19.9614C72.166 24.5561 79.6487 24.7094 84.266 20.3001C88.9554 15.8214 89.126 8.32141 84.646 3.62141Z" fill="#0AB682"/>
<path d="M109.859 39.9416C112.095 37.691 113.271 34.5976 113.098 31.431L113.092 31.343C112.562 21.6683 100.834 17.1816 93.9803 24.031L82.8963 35.3176C79.3457 38.867 71.143 39.407 66.9283 35.1923L40.4057 8.3563C38.2937 6.17763 35.3883 4.94963 32.355 4.95097C22.3737 4.95497 17.379 17.023 24.4363 24.0803L35.6163 34.8736C39.683 39.3003 39.2403 47.0963 35.6163 50.7203L8.75233 77.6363C6.68299 79.7056 5.50566 82.5016 5.471 85.4283L5.46833 85.679C5.34966 95.7256 17.4923 100.839 24.5963 93.735L35.7603 82.5203C39.6443 78.635 47.7257 78.5923 51.795 82.663L78.203 109.227C80.387 111.41 83.3723 112.596 86.459 112.504L86.495 112.503C96.315 112.214 101.034 100.326 94.087 93.379L83.4177 82.599C79.4617 78.643 79.1643 71.0056 83.391 66.779L109.859 39.9416ZM67.995 67.6696C63.0537 72.379 55.1697 72.199 50.4617 67.2696C45.827 62.4163 45.987 54.5496 50.8177 49.867C55.7443 45.091 63.5137 45.227 68.3083 50.1763C73.0857 55.1056 72.9443 62.9523 67.995 67.6696Z" fill="#0AB682"/>
</svg>
