<svg width="24" height="24" viewBox="0 0 24 24" fill="none" xmlns="http://www.w3.org/2000/svg">
<path d="M9.01367 3.90625C7.13567 3.90625 5.57367 5.17126 5.14267 6.91626C5.02367 6.92426 3.01367 6.90625 3.01367 6.90625C2.46167 6.90625 2.01367 7.35425 2.01367 7.90625C2.01367 8.45825 2.46167 8.90625 3.01367 8.90625C3.01367 8.90625 4.98967 8.89725 5.13467 8.90625C5.63567 10.6473 7.13567 11.9062 9.01367 11.9062C10.8707 11.9062 12.4317 10.6153 12.8827 8.90027L21.0137 8.90625C21.5657 8.90625 22.0137 8.45825 22.0137 7.90625C22.0137 7.35425 21.5657 6.90625 21.0137 6.90625L12.8957 6.90826C12.4447 5.19326 10.8707 3.90625 9.01367 3.90625ZM16.0137 11.9062C14.1567 11.9062 12.5967 13.1862 12.1457 14.9012L3.01367 14.9062C2.46167 14.9062 2.01367 15.3543 2.01367 15.9062C2.01367 16.4582 2.46167 16.9062 3.01367 16.9062L12.1497 16.9083C12.6007 18.6233 14.1567 19.9062 16.0137 19.9062C17.8707 19.9062 19.4257 18.6253 19.8767 16.9103L21.0137 16.9062C21.5657 16.9062 22.0137 16.4582 22.0137 15.9062C22.0137 15.3543 21.5657 14.9062 21.0137 14.9062L19.8857 14.9053C19.4347 13.1903 17.8707 11.9062 16.0137 11.9062Z" fill="#0AB682"/>
</svg>
