<svg width="100" height="100" viewBox="0 0 100 100" fill="none" xmlns="http://www.w3.org/2000/svg">
<path d="M40.4483 26.1018C39.8534 25.9052 39.2142 25.8756 38.6046 26.1805C37.3926 26.7877 36.8468 28.27 37.454 29.4844L39.0815 32.7221C38.5775 33.231 38.0785 33.816 37.6483 34.4011C36.4412 36.0433 37.5794 38.3886 39.6174 38.3468C39.8386 38.3246 41.1637 38.3369 42.7739 38.6294C44.3324 38.9171 46.2868 39.4358 47.725 40.1315C47.8282 40.1807 48.3371 40.4192 48.4379 40.4683C49.1311 40.8149 49.8981 40.8149 50.5913 40.4683C52.4793 39.5243 54.5124 38.9048 56.5823 38.5483C57.6959 38.3566 58.7972 38.2386 59.3872 38.2263C60.2919 38.2042 61.1007 37.6682 61.499 36.8594C61.998 35.8417 61.7104 35.0305 61.5752 34.7674C61.113 33.8824 60.6484 33.4424 59.9134 32.7368L61.5752 29.4844C62.1824 28.27 61.6366 26.7877 60.4246 26.1805C59.8174 25.8756 59.1758 25.9027 58.5809 26.1018C57.9835 26.301 57.423 26.7262 57.1207 27.331L55.8645 29.8631C53.9077 28.9142 51.7222 28.4077 49.5146 28.4077C47.2726 28.4077 45.0724 28.9461 43.1229 29.8655L41.9086 27.331C41.6062 26.7262 41.0457 26.301 40.4483 26.1018ZM29.848 38.2411C28.491 38.2411 27.3896 39.3424 27.3896 40.6994C27.3896 44.5147 30.9493 48.0744 34.7646 48.0744V52.9911H29.848C28.491 52.9911 27.3896 54.0924 27.3896 55.4494C27.3896 56.8064 28.491 57.9077 29.848 57.9077H34.7646C34.7646 59.6458 35.0866 61.2978 35.6398 62.8465C35.2882 62.8465 35.7627 62.8244 34.7646 62.8244C30.9493 62.8244 27.3896 66.3841 27.3896 70.1994C27.3896 71.5564 28.491 72.6577 29.848 72.6577C31.205 72.6577 32.3063 71.5564 32.3063 70.1994C32.3063 69.0981 33.6633 67.7411 34.7646 67.7411C37.223 67.7411 38.0195 67.7829 38.5382 67.7509C41.3603 70.7943 44.9815 72.6577 49.5146 72.6577C54.0478 72.6577 57.8434 70.696 60.5353 67.7386C61.2581 67.7779 61.8063 67.7411 64.2646 67.7411C65.3659 67.7411 66.7229 69.0981 66.7229 70.1994C66.7229 71.5564 67.8242 72.6577 69.1812 72.6577C70.5382 72.6577 71.6396 71.5564 71.6396 70.1994C71.6396 66.3841 68.0799 62.8244 64.2646 62.8244C63.2665 62.8244 63.7582 62.8146 63.4066 62.8146C63.9573 61.2634 64.2646 59.6458 64.2646 57.9077H69.1812C70.5382 57.9077 71.6396 56.8064 71.6396 55.4494C71.6396 54.0924 70.5382 52.9911 69.1812 52.9911H64.2646V48.0744C68.0799 48.0744 71.6396 44.5147 71.6396 40.6994C71.6396 39.3424 70.5382 38.2411 69.1812 38.2411C67.8242 38.2411 66.7229 39.3424 66.7229 40.6994C66.7229 41.8007 65.3659 43.1577 64.2646 43.1577C63.3255 43.1577 59.8519 43.1577 59.3479 43.1577C54.4313 43.1577 51.9729 45.6161 51.9729 50.5327C51.9729 56.949 51.9729 62.8244 51.9729 62.8244C51.9729 64.1814 50.8716 65.2827 49.5146 65.2827C48.1576 65.2827 47.0563 64.1814 47.0563 62.8244C47.0563 62.8244 47.0563 55.4494 47.0563 50.5327C47.0563 45.6161 44.598 43.1577 39.6813 43.1577C37.223 43.1577 35.7726 43.1577 34.7646 43.1577C33.6633 43.1577 32.3063 41.8007 32.3063 40.6994C32.3063 39.3424 31.205 38.2411 29.848 38.2411Z" fill="#0AB682"/>
</svg>
