<svg width="342" height="342" viewBox="0 0 342 342" fill="none" xmlns="http://www.w3.org/2000/svg">
<circle cx="171" cy="171" r="171" transform="rotate(90 171 171)" fill="#E5E5E5"/>
<path d="M342 171C342 148.544 337.577 126.308 328.983 105.561C320.39 84.8144 307.794 65.9635 291.915 50.0847C276.036 34.2059 257.186 21.6101 236.439 13.0166C215.692 4.42303 193.456 -9.88383e-06 171 -7.47465e-06L171 171L342 171Z" fill="url(#paint0_linear_369_4783)"/>
<path d="M221 190.707V150.503C221 145.36 218.21 140.605 213.685 138.032L178.314 117.93C173.786 115.357 168.211 115.357 163.683 117.93L128.312 138.032C123.787 140.605 121 145.36 121 150.503V190.707C121 195.85 123.787 200.606 128.312 203.179L163.683 223.281C168.211 225.854 173.786 225.854 178.314 223.281L213.685 203.179C218.21 200.606 221 195.85 221 190.707Z" fill="#0AB682"/>
<path d="M177.275 153.091V188H169.894V160.097H169.69L161.695 165.108V158.562L170.337 153.091H177.275Z" fill="white"/>
<defs>
<linearGradient id="paint0_linear_369_4783" x1="342" y1="171" x2="-7.47465e-06" y2="171" gradientUnits="userSpaceOnUse">
<stop stop-color="#09B781"/>
<stop offset="1" stop-color="#055037"/>
</linearGradient>
</defs>
</svg>
