<svg width="342" height="342" viewBox="0 0 342 342" fill="none" xmlns="http://www.w3.org/2000/svg">
<circle cx="171" cy="171" r="171" transform="rotate(-90 171 171)" fill="#E5E5E5"/>
<circle cx="171" cy="171" r="171" transform="rotate(-90 171 171)" fill="url(#paint0_linear_369_4780)"/>
<path d="M221 183.707V143.503C221 138.36 218.21 133.605 213.685 131.032L178.314 110.93C173.786 108.357 168.211 108.357 163.683 110.93L128.312 131.032C123.787 133.605 121 138.36 121 143.503V183.707C121 188.85 123.787 193.606 128.312 196.179L163.683 216.281C168.211 218.854 173.786 218.854 178.314 216.281L213.685 196.179C218.21 193.606 221 188.85 221 183.707Z" fill="#0AB682"/>
<path d="M157.036 174.864V169.051L171.609 146.091H176.621V154.136H173.655L164.467 168.676V168.949H185.178V174.864H157.036ZM173.791 181V173.091L173.928 170.517V146.091H180.848V181H173.791Z" fill="white"/>
<defs>
<linearGradient id="paint0_linear_369_4780" x1="171" y1="0" x2="171" y2="342" gradientUnits="userSpaceOnUse">
<stop stop-color="#09B781"/>
<stop offset="1" stop-color="#055037"/>
</linearGradient>
</defs>
</svg>
