<svg width="342" height="342" viewBox="0 0 342 342" fill="none" xmlns="http://www.w3.org/2000/svg">
<circle cx="171" cy="171" r="171" transform="rotate(-90 171 171)" fill="#E5E5E5"/>
<path d="M-7.47465e-06 171C-6.39961e-06 204.821 10.029 237.882 28.8187 266.003C47.6084 294.123 74.315 316.041 105.561 328.983C136.807 341.926 171.19 345.312 204.36 338.714C237.531 332.116 268 315.83 291.915 291.915C315.83 268 332.116 237.531 338.714 204.36C345.312 171.19 341.926 136.807 328.983 105.561C316.041 74.315 294.123 47.6084 266.002 28.8187C237.882 10.029 204.821 -8.95299e-06 171 -7.47465e-06L171 171L-7.47465e-06 171Z" fill="url(#paint0_linear_369_4781)"/>
<path d="M221 190.707V150.503C221 145.36 218.21 140.605 213.685 138.032L178.314 117.93C173.786 115.357 168.211 115.357 163.683 117.93L128.312 138.032C123.787 140.605 121 145.36 121 150.503V190.707C121 195.85 123.787 200.606 128.312 203.179L163.683 223.281C168.211 225.854 173.786 225.854 178.314 223.281L213.685 203.179C218.21 200.606 221 195.85 221 190.707Z" fill="#0AB682"/>
<path d="M170.913 188.477C168.367 188.477 166.1 188.04 164.112 187.165C162.134 186.278 160.572 185.062 159.424 183.517C158.288 181.96 157.702 180.165 157.668 178.131H165.1C165.146 178.983 165.424 179.733 165.935 180.381C166.458 181.017 167.151 181.511 168.015 181.864C168.879 182.216 169.85 182.392 170.93 182.392C172.055 182.392 173.049 182.193 173.913 181.795C174.776 181.398 175.452 180.847 175.941 180.142C176.43 179.437 176.674 178.625 176.674 177.705C176.674 176.773 176.413 175.949 175.89 175.233C175.379 174.506 174.64 173.937 173.674 173.528C172.719 173.119 171.583 172.915 170.265 172.915H167.009V167.494H170.265C171.379 167.494 172.362 167.301 173.214 166.915C174.077 166.528 174.748 165.994 175.225 165.312C175.702 164.619 175.941 163.812 175.941 162.892C175.941 162.017 175.731 161.25 175.31 160.591C174.901 159.92 174.322 159.398 173.572 159.023C172.833 158.648 171.969 158.46 170.981 158.46C169.981 158.46 169.066 158.642 168.237 159.006C167.407 159.358 166.742 159.864 166.242 160.523C165.742 161.182 165.475 161.955 165.441 162.841H158.367C158.401 160.83 158.975 159.057 160.089 157.523C161.202 155.989 162.702 154.79 164.589 153.926C166.487 153.051 168.629 152.614 171.015 152.614C173.424 152.614 175.532 153.051 177.339 153.926C179.146 154.801 180.549 155.983 181.549 157.472C182.56 158.949 183.06 160.608 183.049 162.449C183.06 164.403 182.452 166.034 181.225 167.341C180.009 168.648 178.424 169.477 176.469 169.83V170.102C179.038 170.432 180.992 171.324 182.333 172.778C183.685 174.222 184.356 176.028 184.344 178.199C184.356 180.188 183.782 181.955 182.623 183.5C181.475 185.045 179.89 186.261 177.867 187.148C175.844 188.034 173.526 188.477 170.913 188.477Z" fill="white"/>
<defs>
<linearGradient id="paint0_linear_369_4781" x1="-7.47465e-06" y1="171" x2="342" y2="171" gradientUnits="userSpaceOnUse">
<stop stop-color="#09B781"/>
<stop offset="1" stop-color="#055037"/>
</linearGradient>
</defs>
</svg>
