<svg width="342" height="342" viewBox="0 0 342 342" fill="none" xmlns="http://www.w3.org/2000/svg">
<circle cx="171" cy="171" r="171" transform="rotate(-180 171 171)" fill="#E5E5E5"/>
<path d="M171 342C216.352 342 259.847 323.984 291.915 291.915C323.984 259.847 342 216.352 342 171C342 125.648 323.984 82.1535 291.915 50.0848C259.847 18.016 216.352 -3.59571e-06 171 -1.49493e-05L171 171L171 342Z" fill="url(#paint0_linear_369_4782)"/>
<path d="M221 190.707V150.503C221 145.36 218.21 140.605 213.685 138.032L178.314 117.93C173.786 115.357 168.211 115.357 163.683 117.93L128.312 138.032C123.787 140.605 121 145.36 121 150.503V190.707C121 195.85 123.787 200.606 128.312 203.179L163.683 223.281C168.211 225.854 173.786 225.854 178.314 223.281L213.685 203.179C218.21 200.606 221 195.85 221 190.707Z" fill="#0AB682"/>
<path d="M158.712 188V182.682L171.138 171.176C172.195 170.153 173.082 169.233 173.798 168.415C174.525 167.597 175.076 166.795 175.451 166.011C175.826 165.216 176.013 164.358 176.013 163.438C176.013 162.415 175.781 161.534 175.315 160.795C174.849 160.045 174.212 159.472 173.406 159.074C172.599 158.665 171.684 158.46 170.661 158.46C169.593 158.46 168.661 158.676 167.866 159.108C167.07 159.54 166.457 160.159 166.025 160.966C165.593 161.773 165.377 162.733 165.377 163.847H158.371C158.371 161.562 158.888 159.58 159.923 157.898C160.957 156.216 162.406 154.915 164.269 153.994C166.133 153.074 168.281 152.614 170.712 152.614C173.212 152.614 175.388 153.057 177.241 153.943C179.104 154.818 180.553 156.034 181.587 157.591C182.621 159.148 183.138 160.932 183.138 162.943C183.138 164.261 182.877 165.562 182.354 166.847C181.843 168.131 180.928 169.557 179.61 171.125C178.292 172.682 176.434 174.551 174.036 176.733L168.94 181.727V181.966H183.599V188H158.712Z" fill="white"/>
<defs>
<linearGradient id="paint0_linear_369_4782" x1="171" y1="342" x2="171" y2="-1.49493e-05" gradientUnits="userSpaceOnUse">
<stop stop-color="#09B781"/>
<stop offset="1" stop-color="#055037"/>
</linearGradient>
</defs>
</svg>
